<?xml version="1.0" encoding="UTF-8"?>
<svg xmlns="http://www.w3.org/2000/svg" viewBox="724 0 724 1448">
  <path d="M982.69 1149.31c-3.07-2.23-3.98-6.24-5.24-11.03-7.19-27.14-7.88-53.18-6.67-82.78q1.03-25.29 9.23-47.45c4.77-12.89 15.33-24.77 23.79-36q.82-1.09.74.27c-1.37 22.86-2.72 45.67-3.11 68.49-.52 30.56-1.51 61.11-.42 91.68.24 6.83-2.77 16.29-10.08 18.37q-4.39 1.25-8.24-1.55z" fill="#E24A4A" stroke="#B52F38" stroke-width="2" stroke-linejoin="round"/>
  <path d="M1013.69 1150.31c-4.8-2.61-4.66-16.17-4.36-20.75 2.34-36.49 3.44-73.94 1.04-110.45-1.03-15.55.02-31.49.62-47.06q.03-.66.25-.03c2.28 6.45 4.52 12.88 7.39 19.11 5.12 11.14 11.5 22.91 14.83 33.92q2.34 7.74 3.97 16.46 5.3 28.43 5.62 56.09c.2 18.32-7.9 40-22.63 51.79q-3.42 2.73-6.73.92z" fill="#E24A4A" stroke="#B52F38" stroke-width="2" stroke-linejoin="round"/>
  <path d="M1172.94 1149.31c-6.06-4.56-6.94-11.4-6.8-19.4.96-52.67-.49-105.31-3.54-157.9q-.04-.72.41-.16 7.96 10.07 15.43 20.44c9.11 12.64 13.61 28.98 15.78 44.21 4.96 34.71 3.75 72.94-5.97 106.5-1.97 6.82-9.18 10.93-15.31 6.31z" fill="#E24A4A" stroke="#B52F38" stroke-width="2" stroke-linejoin="round"/>
  <path d="M1173.74 1161.73c6.88-2 14.34 3.23 11.98 10.91-2.24 7.3-4.78 14.44-5.99 21.96-5.07 31.52-8.04 63.18-14.13 94.6a.72.71-61.9 01-1.21.37c-.14-.14-.35-.39-.4-.59q-3.53-13.58-3.19-28.23 1.04-44.67 5.06-87.04c.58-6.1 1.93-10.25 7.88-11.98z" fill="#E24A4A" stroke="#B52F38" stroke-width="2" stroke-linejoin="round"/>
</svg>
