<?xml version="1.0" encoding="UTF-8"?>
<svg xmlns="http://www.w3.org/2000/svg" viewBox="724 0 724 1448">
  <path d="M982.69 1149.31c-3.07-2.23-3.98-6.24-5.24-11.03-7.19-27.14-7.88-53.18-6.67-82.78q1.03-25.29 9.23-47.45c4.77-12.89 15.33-24.77 23.79-36q.82-1.09.74.27c-1.37 22.86-2.72 45.67-3.11 68.49-.52 30.56-1.51 61.11-.42 91.68.24 6.83-2.77 16.29-10.08 18.37q-4.39 1.25-8.24-1.55z" fill="#E24A4A" stroke="#B52F38" stroke-width="2" stroke-linejoin="round"/>
  <path d="M1172.94 1149.31c-6.06-4.56-6.94-11.4-6.8-19.4.96-52.67-.49-105.31-3.54-157.9q-.04-.72.41-.16 7.96 10.07 15.43 20.44c9.11 12.64 13.61 28.98 15.78 44.21 4.96 34.71 3.75 72.94-5.97 106.5-1.97 6.82-9.18 10.93-15.31 6.31z" fill="#E24A4A" stroke="#B52F38" stroke-width="2" stroke-linejoin="round"/>
</svg>
