<?xml version="1.0" encoding="UTF-8"?>
<svg xmlns="http://www.w3.org/2000/svg" viewBox="724 0 724 1448">
  <path d="M1045.06 626.19q1.42.61 4.11 4.4.27.39-.19.52c-14.47 4.12-26.13 7.4-38.13 15.77q-15.37 10.71-30.53 21.6a.55.54 74.9 01-.86-.5c1.19-13.13 10.35-35.23 20.46-45.06 9.14-8.88 34.99-1.11 45.14 3.27z" fill="#E24A4A" stroke="#B52F38" stroke-width="2" stroke-linejoin="round"/>
  <path d="M1117.94 631.04q-.13-.03-.27-.06-.12-.02-.06-.13 2.58-4.2 7.05-5.92 12.71-4.87 26.13-5.81c12.93-.91 17.1 3.08 23.28 13.06 5.71 9.22 13.32 24.7 13.44 36.06q.01.76-.61.32-16.65-11.74-33.2-23.51c-10.03-7.14-23.72-10.58-35.76-14.01z" fill="#E24A4A" stroke="#B52F38" stroke-width="2" stroke-linejoin="round"/>
</svg>
