<?xml version="1.0" encoding="UTF-8"?>
<svg xmlns="http://www.w3.org/2000/svg" viewBox="724 0 724 1448">
  <path d="M931.03 442.29c-2.01 2.57-6.52 9.71-10.12 9.17q-.52-.08-.8-.52-1.35-2.09-1.84-4.44c-2.25-10.87-3.28-22.88 1.35-33.38 5.45-12.33 18.27-23.68 29.61-31.2a.47.46 68.7 01.71.32l6.42 38.52q.09.54-.26.97c-.47.58-1.12 1.52-1.71 1.94q-9.11 6.58-18.08 13.36-2.9 2.2-5.28 5.26z" fill="#E24A4A" stroke="#B52F38" stroke-width="2" stroke-linejoin="round"/>
  <path d="M1213.94 424.56q-2.02-1.5-3.08-3.02-.31-.46-.22-1 3.32-19.22 6.42-38.46.09-.56.56-.25 14.9 9.82 24.8 22.71c9.8 12.75 9.72 30.37 5.41 45.13a2.62 2.62 0 01-3.76 1.57c-3.26-1.77-6.22-6.71-8.62-9.67-5.24-6.46-14.75-12-21.51-17.01z" fill="#E24A4A" stroke="#B52F38" stroke-width="2" stroke-linejoin="round"/>
</svg>
