<?xml version="1.0" encoding="UTF-8"?>
<svg xmlns="http://www.w3.org/2000/svg" viewBox="0 0 724 1448">
  <path d="M275.11 942.93q-2.42-2.18-3.57-5.24c-3.98-10.61-7.68-21.02-12.81-31.32-7.85-15.76-10.77-34.56-13.2-51.46-2.11-14.63-2.31-31.47-3.93-47.18-.22-2.16-1.04-12.78.46-13.79q1.36-.92 2.08.55c1.5 3.08 3.12 6.12 3.66 9.58q8.21 52.38 26.36 102.15c2.87 7.87 9.98 30.5 1.85 36.74a.71.7-42.5 01-.9-.03z" fill="#E24A4A" stroke="#B52F38" stroke-width="2" stroke-linejoin="round"/>
  <path d="M451.79 942.6c-9.95-10.01 4.97-42.91 8.94-55.41q12.55-39.53 19.27-80.47c.49-2.97 2.64-12.34 5.41-13.28a.83.83 0 011.09.64q.74 4 .45 7.92c-1.99 26.52-3.37 58.99-11.01 87.73q-2.53 9.5-7.46 18.8c-4.38 8.24-6.97 16.72-10.08 25.27q-1.66 4.54-4.55 8.63a1.35 1.35 0 01-2.06.17z" fill="#E24A4A" stroke="#B52F38" stroke-width="2" stroke-linejoin="round"/>
</svg>
