<?xml version="1.0" encoding="UTF-8"?>
<svg xmlns="http://www.w3.org/2000/svg" viewBox="0 0 724 1448">
  <path d="M322.69 945.72c-3.73 6.14-10.77-2.43-12.6-5.6-3.16-5.47-2.62-14.93-1.78-20.81 4.03-28.09 5.6-52.81 3.48-80.78q-.06-.79.28-.08 15.77 32.83 14.26 68.9c-.4 9.54-2.94 22.48-2.91 34.13q.01 3.02-.73 4.24z" fill="#E24A4A" stroke="#B52F38" stroke-width="2" stroke-linejoin="round"/>
  <path d="M406.69 946.81c-3.24-2.77-1.48-10.64-2.01-14.71q-2.23-17.18-2.57-22.16c-1.75-25.07 3.61-49.11 13.98-71.92q.23-.51.2.05c-1.2 19.15-1.28 38.18.83 57.38q1.68 15.4 3.39 30.8c.43 3.92-.31 9.71-2.09 13.33-1.62 3.28-7.58 10.77-11.73 7.23z" fill="#E24A4A" stroke="#B52F38" stroke-width="2" stroke-linejoin="round"/>
</svg>
