<?xml version="1.0" encoding="UTF-8"?>
<svg xmlns="http://www.w3.org/2000/svg" viewBox="724 0 724 1448">
  <path d="M958.15 427.11a.41.41 0 01.55.27q4.44 16.16-2.23 31.41-3.37 7.73-5.91 19.98c-1.51 7.28-8.93 12.21-11.81 18.82-2.42 5.56-2.41 12.5-3.51 16.66-2.14 8.06-8.51 14.15-13.91 20.13a.93.93 0 01-1.54-.25q-.57-1.3-.75-2.89c-1.93-16.91 2.52-33.52 5.71-49.99 2.16-11.21-1.54-24.15 9.68-34.59q9.54-8.86 19.55-17.23c1.3-1.08 2.7-1.72 4.17-2.32z" fill="#E24A4A" stroke="#B52F38" stroke-width="2" stroke-linejoin="round"/>
  <path d="M1246.2 534.5q-.95-.3-1.75-1.22c-4.65-5.4-9.13-9.88-11.46-15.51-2.96-7.13-1.37-15.5-5.64-22.09-4.06-6.26-8.72-9.91-10.89-17.58-1.62-5.68-2.81-11.46-4.97-17.02-4.56-11.69-6.45-20.86-3.33-33.56a.59.58-74 01.75-.42q1.69.56 3.22 1.79 11.23 9.08 21.54 19.18c5.39 5.28 6.92 10.13 7.24 18.16.9 22.52 10.62 44.97 6.59 67.49a1.01 1 13.9 01-1.3.78z" fill="#E24A4A" stroke="#B52F38" stroke-width="2" stroke-linejoin="round"/>
</svg>
