<?xml version="1.0" encoding="UTF-8"?>
<svg xmlns="http://www.w3.org/2000/svg" viewBox="724 0 724 1448">
  <path d="M983.99 1163.56c7.15-5.59 16.16-.63 17 8.23q4.31 45.02 5.22 90.26c.16 8.25-.8 15.79-2.19 23.65q-.45 2.52-1.43 3.66-.95 1.11-1.22-.33c-5.03-26.7-8.28-53.49-11.87-80.36q-1.68-12.52-3.24-18.71-2.04-8.12-5.53-18.24c-1.03-3 .8-6.25 3.26-8.16z" fill="#E24A4A" stroke="#B52F38" stroke-width="2" stroke-linejoin="round"/>
  <path d="M1144.41 1147.33q-17.19-17.37-20.08-40.86-.89-7.22-.13-19.97 1.18-20.06 4.69-41.33c2.33-14.1 5.8-25.22 12.41-38.61q8.19-16.59 14.35-34.15a.14.13-37.7 01.26.03q1.01 15.71 1.26 31.44c.18 11.61-1.34 24.91-1.58 36.43-.72 34.7 1.22 62.05 2.06 93.19.17 6.32-1.1 26.1-13.24 13.83z" fill="#E24A4A" stroke="#B52F38" stroke-width="2" stroke-linejoin="round"/>
</svg>
