<?xml version="1.0" encoding="UTF-8"?>
<svg xmlns="http://www.w3.org/2000/svg" viewBox="724 0 724 1448">
  <path d="M983.99 1163.56c7.15-5.59 16.16-.63 17 8.23q4.31 45.02 5.22 90.26c.16 8.25-.8 15.79-2.19 23.65q-.45 2.52-1.43 3.66-.95 1.11-1.22-.33c-5.03-26.7-8.28-53.49-11.87-80.36q-1.68-12.52-3.24-18.71-2.04-8.12-5.53-18.24c-1.03-3 .8-6.25 3.26-8.16z" fill="#E24A4A" stroke="#B52F38" stroke-width="2" stroke-linejoin="round"/>
  <path d="M1014.14 1164.37c7-1.83 14.1 2.2 14.11 9.95q.06 29.04-5.62 57.41c-3.87 19.28-6.24 38.23-8.43 57.48a.37.37 0 01-.74-.01q-3.12-43.48-3.58-86.64-.15-14.16.76-28.3c.18-2.83.02-8.98 3.5-9.89z" fill="#E24A4A" stroke="#B52F38" stroke-width="2" stroke-linejoin="round"/>
  <path d="M1144.41 1147.33q-17.19-17.37-20.08-40.86-.89-7.22-.13-19.97 1.18-20.06 4.69-41.33c2.33-14.1 5.8-25.22 12.41-38.61q8.19-16.59 14.35-34.15a.14.13-37.7 01.26.03q1.01 15.71 1.26 31.44c.18 11.61-1.34 24.91-1.58 36.43-.72 34.7 1.22 62.05 2.06 93.19.17 6.32-1.1 26.1-13.24 13.83z" fill="#E24A4A" stroke="#B52F38" stroke-width="2" stroke-linejoin="round"/>
  <path d="M1154.32 1165a1.58 1.57-84.6 01.97 1.18c.79 4.42 1.42 8.78 1.57 13.4.96 29.17-.47 62.66-2.04 90.23q-.78 13.79-1.39 19.52a.23.23 0 01-.45 0c-2.79-21.25-5.41-41.99-9.64-63.03-3.44-17.08-4.29-34.91-4.68-52.3-.19-8.37 8.99-11.61 15.66-9z" fill="#E24A4A" stroke="#B52F38" stroke-width="2" stroke-linejoin="round"/>
</svg>
