<?xml version="1.0" encoding="UTF-8"?>
<svg xmlns="http://www.w3.org/2000/svg" viewBox="0 0 724 1448">
  <path d="M292.42 935.6q-.95-.52-1.57-1.4-4.1-5.79-7-13.53-7.8-20.79-13.3-42.33c-9.06-35.53-19.33-71.36-25.03-107.59-5.33-33.86 4-74.19 20.7-103.37q.35-.62.53.07c14.44 55.57 39.03 107.94 41.45 165.34 1.11 26.34.66 52.96-3.6 79.03-.63 3.83-4.73 27.81-12.18 23.78z" fill="#E24A4A" stroke="#B52F38" stroke-width="2" stroke-linejoin="round"/>
  <path d="M437.82 933.52c-8.9 14.18-15.15-26.74-15.46-29.25q-5.26-43.04-1.19-86.08c4.9-51.8 26.91-99.32 40.38-150.92q.18-.66.5-.06c17.25 31.67 25.39 68.28 20.54 104.36q-2.29 17.02-8.71 42.76-7.56 30.25-15.2 60.47-6.13 24.25-15.06 47.61-1.83 4.79-5.8 11.11z" fill="#E24A4A" stroke="#B52F38" stroke-width="2" stroke-linejoin="round"/>
</svg>
