<?xml version="1.0" encoding="UTF-8"?>
<svg xmlns="http://www.w3.org/2000/svg" viewBox="724 0 724 1448">
  <path d="M903.57 519.67a1.84 1.82-5.4 01-1.12-.92q-3.54-6.97-3.68-15.19c-.37-21.2 3.8-42.53 9.5-63.44q.33-1.23.92-.1 4.64 8.78 8.6 18.67c2.88 7.21 4.19 12.98 1.88 20.57q-6.07 19.96-14.02 39.23-.65 1.58-2.08 1.18z" fill="#E24A4A" stroke="#B52F38" stroke-width="2" stroke-linejoin="round"/>
  <path d="M1258.43 439.96q2.01 5.38 3.1 10.68c3.58 17.36 7.13 34.77 6.89 52.61q-.11 8.3-3.94 15.61a1.61 1.6 33.4 01-2.44.5c-1.45-1.19-1.9-3.58-2.43-4.94q-9.23-23.41-13.19-38.15c-2.63-9.81 6.82-27.63 11.53-36.35q.28-.5.48.04z" fill="#E24A4A" stroke="#B52F38" stroke-width="2" stroke-linejoin="round"/>
</svg>
